<?xml version="1.0" standalone="no"?>
<!DOCTYPE svg PUBLIC "-//W3C//DTD SVG 20010904//EN"
 "http://www.w3.org/TR/2001/REC-SVG-20010904/DTD/svg10.dtd">
<svg version="1.0" xmlns="http://www.w3.org/2000/svg"
 width="512.000000pt" height="512.000000pt" viewBox="0 0 512.000000 512.000000"
 preserveAspectRatio="xMidYMid meet">
<metadata>
Created by potrace 1.14, written by Peter Selinger 2001-2017
</metadata>
<g transform="translate(0.000000,512.000000) scale(0.100000,-0.100000)"
fill="#000000" stroke="none">
<path d="M2952 4158 l-602 -603 0 463 0 462 -855 0 -855 0 0 -855 0 -855 853
2 852 3 5 388 5 387 600 -600 600 -600 -390 -2 -390 -3 -3 -853 -2 -852 855 0
855 0 0 855 0 855 -462 0 -463 0 603 603 602 602 -603 603 -602 602 -603 -602z"/>
<path d="M640 1495 l0 -855 855 0 855 0 -2 853 -3 852 -852 3 -853 2 0 -855z"/>
</g>
</svg>
